<svg class="svg-icon" style="width: 1em;height: 1em;vertical-align: middle;fill: currentColor;overflow: hidden;" viewBox="0 0 1024 1024" version="1.1" xmlns="http://www.w3.org/2000/svg"><path d="M746.666667 896h-469.333334C123.733333 896 0 772.266667 0 618.666667c0-128 85.333333-238.933333 209.066667-268.8C247.466667 217.6 371.2 128 512 128s264.533333 89.6 302.933333 221.866667c123.733333 29.866667 209.066667 140.8 209.066667 268.8 0 153.6-123.733333 277.333333-277.333333 277.333333zM512 213.333333C401.066667 213.333333 307.2 290.133333 281.6 396.8c-4.266667 17.066667-17.066667 29.866667-34.133333 34.133333-93.866667 12.8-162.133333 93.866667-162.133334 187.733334C85.333333 725.333333 170.666667 810.666667 277.333333 810.666667h469.333334c106.666667 0 192-85.333333 192-192 0-93.866667-68.266667-174.933333-162.133334-187.733334-17.066667-4.266667-29.866667-17.066667-34.133333-34.133333C716.8 290.133333 622.933333 213.333333 512 213.333333z"  /><path d="M819.2 738.133333h-89.6c-8.533333 0-17.066667-4.266667-21.333333-12.8-4.266667-8.533333 0-17.066667 8.533333-25.6l64-51.2c4.266667-4.266667 4.266667-4.266667 4.266667-8.533333s0-4.266667-4.266667-8.533333-8.533333-4.266667-12.8 0l-12.8 12.8c-8.533333 8.533333-21.333333 4.266667-29.866667-4.266667-8.533333-8.533333-4.266667-21.333333 4.266667-29.866667l12.8-12.8c21.333333-17.066667 51.2-17.066667 72.533333 4.266667 8.533333 8.533333 17.066667 25.6 17.066667 38.4s-8.533333 29.866667-21.333333 38.4l-17.066667 12.8h29.866667c12.8 0 21.333333 8.533333 21.333333 21.333333s-12.8 25.6-25.6 25.6zM584.533333 738.133333c-59.733333 0-110.933333-51.2-110.933333-110.933333v-46.933333c0-59.733333 51.2-110.933333 110.933333-110.933334s110.933333 51.2 110.933334 110.933334v46.933333c0 59.733333-46.933333 110.933333-110.933334 110.933333z m0-204.8c-25.6 0-46.933333 21.333333-46.933333 46.933334v46.933333c0 25.6 21.333333 46.933333 46.933333 46.933333s46.933333-21.333333 46.933334-46.933333v-46.933333c0-25.6-21.333333-46.933333-46.933334-46.933334zM422.4 738.133333c-8.533333 0-17.066667-4.266667-25.6-12.8l-106.666667-132.266666v110.933333c0 17.066667-12.8 34.133333-34.133333 34.133333s-34.133333-12.8-34.133333-34.133333v-204.8c0-12.8 8.533333-25.6 21.333333-29.866667 12.8-4.266667 25.6 0 34.133333 8.533334L384 610.133333v-110.933333c0-17.066667 12.8-34.133333 34.133333-34.133333s34.133333 12.8 34.133334 34.133333v204.8c0 12.8-8.533333 25.6-21.333334 29.866667 0 4.266667-4.266667 4.266667-8.533333 4.266666z"  /></svg>