<svg xmlns="http://www.w3.org/2000/svg" version="1.1" xmlns:xlink="http://www.w3.org/1999/xlink" xmlns:svgjs="http://svgjs.dev/svgjs" viewBox="0 0 11.246551559964072 11.235032731393467"><g transform="matrix(1,0,0,1,3.598722640376743,2.549515559941214)"><g><path d=" M -1.4617559253890153 1.18275115833031 Q -1.467489752792728 1.1921385553765862 -1.4771123501699936 1.194463554240036 Q -1.486734947547259 1.1967885531034854 -1.4961223445935354 1.1910547256997728 L -2.0508321700553083 0.8522376518440276 Q -2.0602195671015844 0.846503824440315 -2.062544565965034 0.8368812270630495 Q -2.0648695648284834 0.8272586296857838 -2.059135737424771 0.8178712326395077 L -1.8230062997991516 0.43128115427922586 Q -1.817272472395439 0.42189375723294975 -1.8076498750181735 0.41956875836950025 Q -1.7980272776409079 0.41724375950605075 -1.7886398805946317 0.4229775869097634 L -1.7203679020762597 0.464678149845855 Q -1.711833904761463 0.4698907202128666 -1.7095089058980135 0.47951331759013205 Q -1.707183907034564 0.4891359149673977 -1.7129177344382767 0.49852331201367384 L -1.881805014329448 0.7750248250130807 L -1.747821256487143 0.8568621797751605 L -1.5904016314033966 0.5991354608683062 Q -1.584667803999684 0.5897480638220299 -1.5750452066224185 0.5874230649585804 Q -1.5654226092451529 0.5850980660951308 -1.5560352121988767 0.5908318934988435 L -1.4928836320693826 0.6294049142147283 Q -1.4843496347545861 0.6346174845817398 -1.4820246358911366 0.6442400819590054 Q -1.4796996370276871 0.653862679336271 -1.4854334644313996 0.6632500763825471 L -1.6428530895151459 0.9209767952894016 L -1.5046023330154426 1.0054204352349874 L -1.3315449968306619 0.7220917243837434 Q -1.3258111694269492 0.7127043273374671 -1.3161885720496838 0.7103793284740176 Q -1.306565974672418 0.7080543296105681 -1.297178577626142 0.7137881570142807 L -1.2297599988392496 0.7549674629136712 Q -1.2203726017929735 0.7607012903173839 -1.218047602929524 0.7703238876946494 Q -1.2157226040660745 0.7799464850719151 -1.2214564314697869 0.7893338821181912 L -1.4617559253890153 1.18275115833031 M -0.9081219175871951 0.4237925029876811 Q -0.970898237385573 0.49375773487160884 -1.038087107078525 0.5214733584327615 Q -1.1052759767714768 0.5491889819939144 -1.1743487857259367 0.5355802692281647 Q -1.2434215946803968 0.521971556462415 -1.310847982479282 0.46684731289940257 Q -1.3420325657456589 0.4402104631137689 -1.3770151816876226 0.4088223032145799 Q -1.4119977976295865 0.37743414331539094 -1.4433353364722517 0.3479730051960911 Q -1.5046747477788929 0.28756210700251433 -1.5253296505058804 0.2199908483688417 Q -1.545984553232868 0.152419589735169 -1.5257255140157695 0.08192440316189964 Q -1.505466474798671 0.011429216588630164 -1.4440258213789818 -0.057047393340320385 Q -1.399280997692904 -0.10691622883205609 -1.3498968856616533 -0.13650016837507306 Q -1.3005127736304027 -0.16608410791809014 -1.2499814947769898 -0.1744858849586115 Q -1.1994502159235771 -0.18288766199913298 -1.1527525137259897 -0.17054567636207074 Q -1.1060548115284023 -0.15820369072500862 -1.0652706633428182 -0.12429715364473015 Q -1.0585718645454207 -0.11828665494063018 -1.058446914411228 -0.1094416344508875 Q -1.0583219642770354 -0.10059661396114505 -1.0643324629811355 -0.09389781516374773 L -1.1404654465664024 -0.00904636373004819 Q -1.1484794448385358 -0.00011463200018502206 -1.1576201430288784 0.0010885457061684534 Q -1.1667608412192212 0.002291723412521929 -1.179852527661439 -0.004080697328346039 Q -1.2337843731734328 -0.032318190837339444 -1.2735333763052377 -0.02095963679081647 Q -1.3132823794370423 -0.00960108274429361 -1.3480097052829534 0.029103088085113304 Q -1.3894153630223092 0.07525036868940604 -1.388150784604097 0.12475189231670658 Q -1.3868862061858849 0.17425341594400712 -1.3300891385323195 0.2292451708346841 Q -1.271059137946288 0.2862404252933945 -1.2050448943142358 0.3414411466445511 Q -1.1442408275246037 0.3919670356702966 -1.0948922594735915 0.3878781689184184 Q -1.0455436914225793 0.3837893021665403 -1.0041380336832235 0.33764202156224754 Q -0.9694107078373123 0.2989378507328407 -0.9624496266090778 0.2574885642717456 Q -0.9554885453808433 0.21603927781065052 -0.9893089174243594 0.16688459914383225 Q -0.9978022493293106 0.1538898573937112 -0.9972211273800866 0.14500659800989668 Q -0.9966400054308628 0.13612333862608206 -0.9886260071587295 0.1271916068962189 L -0.9124930235734625 0.04234015546251935 Q -0.9064825248693625 0.035641356665122026 -0.8976757432736922 0.0348103344475128 Q -0.8888689616780217 0.03397931222990369 -0.8821701628806242 0.03998981093400367 Q -0.8440573474524178 0.07687359192423648 -0.8267443055859861 0.12196526057079671 Q -0.8094312637195544 0.16705692921735693 -0.8123266400136973 0.218200030375923 Q -0.8152220163078402 0.26934313153448897 -0.8392995551044786 0.3216333995152172 Q -0.8633770939011172 0.37392366749594536 -0.9081219175871951 0.4237925029876811 M -0.3516512884188176 -0.0866255305761588 Q -0.42428458858933626 -0.03180396815461389 -0.495036727972859 -0.015988318542455582 Q -0.5657888673563818 -0.0001726689302972706 -0.6317683907938835 -0.026171755201936986 Q -0.6977479142313852 -0.05217084147357667 -0.7555664158060411 -0.12379500552218192 Q -0.7822692782708427 -0.15751380052120117 -0.8078727552259599 -0.19143594620523458 Q -0.833476232181077 -0.22535809188926803 -0.8591851931302799 -0.2610799245257995 Q -0.9110098163987137 -0.3347223608182314 -0.9181282486243243 -0.4064010042390537 Q -0.925246680849935 -0.4780796476598759 -0.8908439772645328 -0.5428847708062365 Q -0.8564412736791307 -0.6076898939525971 -0.785404309776096 -0.6613065868703718 Q -0.7151655140068033 -0.7143208450362614 -0.6434118558045244 -0.7296395438906202 Q -0.5716581976022456 -0.7449582427449791 -0.5042780712791168 -0.7187634230914826 Q -0.436897944955988 -0.6925686034379861 -0.3810824810188443 -0.6219383409049797 Q -0.3529790156684156 -0.5880238125241035 -0.3273755387132985 -0.5541016668400701 Q -0.3017720617581814 -0.5201795211560367 -0.2774637036946056 -0.48465342190136207 Q -0.22443421092240146 -0.4094146493414462 -0.21751912938180495 -0.3388353914303085 Q -0.2106040478412085 -0.2682561335191707 -0.24521010211162475 -0.20455039588249468 Q -0.279816156382041 -0.1408446582458186 -0.3516512884188176 -0.0866255305761588 M -0.42936537141199665 -0.189589219828872 Q -0.38307161965496284 -0.22453043543820828 -0.37452674833156063 -0.27545670738173955 Q -0.3659818770081584 -0.3263829793252708 -0.411375451387713 -0.3898449632609141 Q -0.4362862442031738 -0.42616923064933065 -0.4594799821507505 -0.45689870379839626 Q -0.4826737200983272 -0.48762817694746174 -0.5101747506968708 -0.520744537194596 Q -0.5422995259286385 -0.5616468453972929 -0.5765468991482023 -0.5771425682768456 Q -0.6107942723677663 -0.5926382911563985 -0.6436779709673733 -0.5872380720487882 Q -0.6765616695669805 -0.581837852941178 -0.707690226782917 -0.5583428976176587 Q -0.7388187839988536 -0.5348479422941395 -0.7534260893568931 -0.5044032936645857 Q -0.7680333947149329 -0.47395864503503204 -0.7621209902432087 -0.43707648846355784 Q -0.7562085857714844 -0.40019433189208375 -0.7264783149409426 -0.35748471943373145 Q -0.7013717887436249 -0.3225610549309419 -0.6781780507960482 -0.2918315817818764 Q -0.6549843128484716 -0.2611021086328108 -0.6276790156317849 -0.2265851455000496 Q -0.5782946005835204 -0.16613533532383185 -0.5273759459431464 -0.16009045239574116 Q -0.4764572913027725 -0.15404556946765058 -0.42936537141199665 -0.189589219828872 M 0.32449382749380884 -0.5138476660650872 Q 0.314338767470135 -0.5096198112998923 0.30518600351358216 -0.5133916691916516 Q 0.29603323955702926 -0.5171635270834108 0.2918053847918343 -0.5273185871070847 L 0.04197760321213284 -1.1273903157787202 Q 0.0377497484469379 -1.1375453758023941 0.0415216063386972 -1.1466981397589469 Q 0.04529346423045649 -1.1558509037154998 0.05544852425413033 -1.1600787584806946 L 0.15792231176574809 -1.2027416565658438 Q 0.16807737178942192 -1.2069695113310388 0.17723013574597477 -1.2031976534392794 Q 0.18638289970252764 -1.19942579554752 0.19061075446772258 -1.1892707355238463 L 0.3985443388286741 -0.6898264198140697 L 0.6847323940413004 -0.8089750541059273 Q 0.6948874540649741 -0.8132029088711222 0.704040218021527 -0.809431050979363 Q 0.7131929819780798 -0.8056591930876036 0.7174208367432748 -0.7955041330639299 L 0.7497062731320362 -0.7179564019740569 Q 0.7539341278972311 -0.707801341950383 0.7501622700054719 -0.6986485779938302 Q 0.7463904121137126 -0.6894958140372773 0.7362353520900388 -0.6852679592720824 L 0.32449382749380884 -0.5138476660650872 M 0.9353606846780478 -0.7457674094011096 Q 0.9246356184971503 -0.7433234463458716 0.9162553271650641 -0.7485932392440184 Q 0.9078750358329778 -0.7538630321421653 0.9054310727777397 -0.7645880983230628 L 0.7610150740591258 -1.3983420090124608 Q 0.7585711110038877 -1.4090670751933583 0.7638409039020346 -1.4174473665254446 Q 0.7691106968001815 -1.4258276578575309 0.779835762981079 -1.4282716209127688 L 1.2215134884307672 -1.5289184630966643 Q 1.2322385546116648 -1.5313624261519023 1.240618845943751 -1.5260926332537554 Q 1.2489991372758371 -1.5208228403556086 1.2514431003310753 -1.510097774174711 L 1.2692173770964432 -1.432097292859093 Q 1.2714391616921141 -1.4223472326946407 1.2661693687939672 -1.4139669413625544 Q 1.2608995758958204 -1.4055866500304681 1.2501745097149228 -1.40314268697523 L 0.9342725603866691 -1.3311568660754902 L 0.9691545785387035 -1.1780809214935895 L 1.2636063955051622 -1.2451788162828532 Q 1.2743314616860597 -1.2476227793380912 1.282711753018146 -1.2423529864399443 Q 1.2910920443502323 -1.2370831935417974 1.2935360074054705 -1.2263581273608999 L 1.3099772134134358 -1.154207682143953 Q 1.3121989980091067 -1.1444576219795008 1.3069292051109598 -1.1360773306474146 Q 1.301659412212813 -1.1276970393153283 1.2909343460319154 -1.12525307626009 L 0.9964825290654566 -1.0581551814708265 L 1.0324754395153266 -0.9002042068066997 L 1.356177436975142 -0.9739674553829762 Q 1.3669025031560396 -0.9764114184382143 1.3752827944881258 -0.9711416255400673 Q 1.3836630858202121 -0.9658718326419204 1.3861070488754503 -0.955146766461023 L 1.403659147181251 -0.87812129116185 Q 1.4061031102364892 -0.8673962249809526 1.4008333173383423 -0.8590159336488662 Q 1.3955635244401954 -0.85063564231678 1.3848384582592979 -0.8481916792615418 L 0.9353606846780478 -0.7457674094011096 M 1.5520519660696757 -0.8772045855861363 Q 1.5430587861191931 -0.8768542794653802 1.5368103339538808 -0.8831158164602246 Q 1.5305618817885687 -0.8893773534550691 1.5302504985701189 -0.8973712911888313 Q 1.5300558840585876 -0.9023675022724327 1.530899434666083 -0.9064033940416201 L 1.743691656062602 -1.5581797901416437 Q 1.7462612307873941 -1.5692882232324856 1.7549430275194269 -1.5776324670870037 Q 1.7636248242514594 -1.5859767109415221 1.7796126997189838 -1.5865994773784218 L 1.9075157034591799 -1.5915816088736197 Q 1.9235035789267043 -1.5922043753105193 1.9328081420956367 -1.5845607436975133 Q 1.942112705264569 -1.5769171120845071 1.9455385838400985 -1.5660422164075027 L 2.2083856576024328 -0.9327931218052461 Q 2.209540591428378 -0.9288350758406712 2.2097352059399094 -0.9238388647570698 Q 2.210046589158359 -0.9158449270233076 2.204304134723028 -0.9091163152007883 Q 2.198561680287697 -0.9023877033782691 2.1895685003372143 -0.902037397257513 L 2.085647309798305 -0.8979894154176647 Q 2.070658676547501 -0.8974055718830712 2.0633915207143154 -0.9041278070839696 Q 2.05612436488113 -0.9108500422848679 2.053892343033852 -0.9167676497805771 L 2.006565562656582 -1.0270090932540805 L 1.7247792575414627 -1.0160328348037229 L 1.6861712072807888 -0.9024440217318834 Q 1.6844062602611856 -0.8963707226269493 1.6776840250602874 -0.8891035667937637 Q 1.670961789859389 -0.8818364109605781 1.6559731566085847 -0.8812525674259846 L 1.5520519660696757 -0.8772045855861363 M 1.756730165162609 -1.1463752281459696 L 1.9635733040237071 -1.1544322689233597 L 1.849441559837323 -1.4382049684012586 L 1.756730165162609 -1.1463752281459696 M 2.387421812466501 -0.8833836880237419 Q 2.3765499029361794 -0.8850574810708349 2.3706965560832156 -0.8930411099837353 Q 2.364843209230252 -0.9010247388966357 2.366517002277345 -0.9118966484269576 L 2.4654229550601165 -1.5543276661277936 Q 2.4670967481072092 -1.5651995756581156 2.47508037702011 -1.5710529225110794 Q 2.4830640059330102 -1.5769062693640432 2.4939359154633323 -1.57523247631695 L 2.755850099602904 -1.5349092801824356 Q 2.879394526083834 -1.5158889046472872 2.941806742990681 -1.448102732157814 Q 3.0042189598975284 -1.3803165596683407 2.9877853554351606 -1.273574175188817 Q 2.976677456122634 -1.201424230123954 2.934629029498195 -1.158320520093271 Q 2.892580602873757 -1.1152168100625879 2.830615721472009 -1.1004738974308392 L 2.9319330834722015 -0.8319300608653319 Q 2.933985171682057 -0.8255434393814036 2.933224356660651 -0.8206016623221665 Q 2.9320070526264015 -0.8126948190273869 2.925087860627489 -0.8071834868760657 Q 2.9181686686285766 -0.8016721547247445 2.9092734699219496 -0.8030416217632752 L 2.7995660192068836 -0.819931715238487 Q 2.7817756217936296 -0.8226706493155482 2.774325971627674 -0.8334294927666297 Q 2.7668763214617185 -0.844188336217711 2.7641402038485783 -0.8527038315296153 L 2.6784061715835823 -1.0976011073649838 L 2.558815166750042 -1.1160128308830075 L 2.5236655127610876 -0.8877027307462488 Q 2.521991719713995 -0.876830821215927 2.514008090801094 -0.8709774743629632 Q 2.506024461888194 -0.8651241275099995 2.4951525523578724 -0.8667979205570925 L 2.387421812466501 -0.8833836880237419 M 2.5781398682937526 -1.2415339681876325 L 2.704649361010225 -1.2220571036396406 Q 2.7590089086618343 -1.2136881384041753 2.789004402182821 -1.23436470408691 Q 2.818999895703808 -1.2550412697696443 2.8258472308964615 -1.2995172633027792 Q 2.8326945660891147 -1.3439932568359139 2.8109535634923923 -1.3736467356552582 Q 2.7892125608956695 -1.4033002144746027 2.733864657832213 -1.4118213427143491 L 2.6073551651157407 -1.431298207262341 L 2.5781398682937526 -1.2415339681876325 M 3.122335808789314 -0.7459957257187122 Q 3.111986165928762 -0.7497219694921435 3.107771275600595 -0.7586793518955872 Q 3.1035563852724275 -0.7676367342990308 3.107282629045859 -0.7779863771595823 L 3.327469761112256 -1.389556182555806 Q 3.3311960048856872 -1.3999058254163574 3.340153387289131 -1.4041207157445248 Q 3.3491107696925746 -1.4083356060726921 3.359460412553126 -1.404609362299261 L 3.4450801853085973 -1.3737831638099653 Q 3.459193334663895 -1.3687019223007408 3.463408224992062 -1.3597445398972972 Q 3.4676231153202295 -1.3507871574938535 3.4681498708318093 -1.3463461521312112 L 3.578105415399662 -0.8635545011897443 L 3.716992683318466 -1.2493139169012086 Q 3.7207189270918977 -1.25966355976176 3.729676309495341 -1.2638784500899274 Q 3.7386336918987846 -1.268093340418095 3.7480424581356497 -1.2647058460786118 L 3.844011873751673 -1.2301534038158848 Q 3.854361516612224 -1.2264271600424537 3.8585764069403914 -1.21746977763901 Q 3.8627912972685587 -1.2085123952355663 3.8590650534951276 -1.198162752375015 L 3.6388779214287306 -0.586592946978791 Q 3.6354904270892474 -0.577184180741926 3.6263636699688298 -0.5724988521019154 Q 3.617236912848412 -0.5678135234619048 3.6068872699878605 -0.5715397672353362 L 3.5203266206087025 -0.60270471515858 Q 3.506213471253405 -0.6077859566678045 3.5026383939540553 -0.6170444026661173 Q 3.499063316654705 -0.62630284866443 3.4972569350854905 -0.6301417268373344 L 3.3838385244999967 -1.1003632322369283 L 3.24935499922252 -0.7268352126333885 Q 3.245628755449089 -0.7164855697728371 3.2366713730456453 -0.7122706794446697 Q 3.2277139906422017 -0.7080557891165022 3.21736434778165 -0.7117820328899336 L 3.122335808789314 -0.7459957257187122 M 4.095929773219554 -0.3177446133338762 Q 4.086962627390891 -0.32411566471394515 4.085310567287239 -0.3338763356649569 Q 4.083658507183588 -0.34363700661596863 4.090029558563657 -0.35260415244463233 L 4.466500776476825 -0.8824809514111245 Q 4.472871827856894 -0.8914480972397881 4.482632498807906 -0.8931001573434394 Q 4.492393169758917 -0.8947522174470904 4.501360315587581 -0.8883811660670214 L 4.590216578798885 -0.8252498387554288 Q 4.599183724627549 -0.8188787873753598 4.6008357847312 -0.8091181164243482 Q 4.602487844834851 -0.7993574454733363 4.596116793454782 -0.7903902996446727 L 4.451320171180487 -0.5865915308114065 L 4.672238036595747 -0.4296319922660705 L 4.817034658870043 -0.6334307610993367 Q 4.823405710250111 -0.6423979069280004 4.833166381201123 -0.6440499670316515 Q 4.842927052152135 -0.6457020271353027 4.851894197980799 -0.6393309757552337 L 4.940750461192103 -0.576199648443641 Q 4.949717607020767 -0.569828597063572 4.951369667124418 -0.5600679261125604 Q 4.953021727228069 -0.5503072551615487 4.946650675848 -0.5413401093328849 L 4.570179457934833 -0.01146331036639281 Q 4.563808406554763 -0.0024961645377291064 4.554047735603752 -0.0008441044340779524 Q 4.54428706465274 0.000807955669573257 4.535319918824076 -0.005563095710495736 L 4.446463655612773 -0.06869442302208845 Q 4.437496509784109 -0.07506547440215744 4.435844449680458 -0.08482614535316912 Q 4.434192389576806 -0.09458681630418087 4.4405634409568755 -0.10355396213284457 L 4.5899935551439475 -0.31387429156877533 L 4.369075689728687 -0.4708338301141113 L 4.219645575541614 -0.2605135006781806 Q 4.2132745241615455 -0.2515463548495169 4.203513853210534 -0.24989429474586566 Q 4.193753182259522 -0.24824223464221448 4.184786036430858 -0.2546132860222835 L 4.095929773219554 -0.3177446133338762 M 4.905043107854611 0.3665020444135545 Q 4.844896375995173 0.30226521193693767 4.82132026526037 0.23392476269477724 Q 4.797744154525567 0.16558431345261682 4.818031459643433 0.09727124551496218 Q 4.838318764761299 0.028958177577307537 4.907665345275828 -0.03597295340731238 L 5.205490659485598 -0.3148350738465222 Q 5.213520263545175 -0.32235341532895184 5.22341441070827 -0.32202806641622167 Q 5.233308557871365 -0.3217027175034915 5.240826899353795 -0.3136731134439144 L 5.31532682858878 -0.23410703685355944 Q 5.32284517007121 -0.2260774327939823 5.322519821158479 -0.21618328563088707 Q 5.322194472245749 -0.20628913846779184 5.314164868186172 -0.19877079698536226 L 5.0170695179818185 0.07940783786453581 Q 4.963052181581028 0.12998577147360818 4.960695473011961 0.18013999287839613 Q 4.958338764442893 0.23029421428318403 5.001398356569537 0.27628194662439837 Q 5.0437744631068675 0.3215397149601966 5.09397516292776 0.32248297393453573 Q 5.144175862748652 0.32342623290887484 5.1981931991494434 0.2728482992998025 L 5.495288549353796 -0.005330335550095544 Q 5.503318153413373 -0.01284867703252518 5.5135540433711245 -0.012158346117086938 Q 5.523789933328875 -0.011468015201648751 5.530624789221993 -0.004168375147487691 L 5.60580820404629 0.07612766544828337 Q 5.6126430599394075 0.08342730550244437 5.6123177110266775 0.0933214526655396 Q 5.611992362113948 0.10321559982863482 5.6039627580543705 0.11073394131106445 L 5.306137443844602 0.3895960617502743 Q 5.2367908633300715 0.4545271927348942 5.167292595781757 0.4702828522825896 Q 5.097794328233443 0.486038511830285 5.031833826768401 0.45875367636293624 Q 4.9658733253033605 0.43146884089558746 4.905043107854611 0.3665020444135545 M 5.250159556590694 0.7598595106279877 Q 5.244341726152769 0.750523941604326 5.246580287070965 0.7408808692196798 Q 5.2488188479891615 0.7312377968350336 5.258154417012823 0.7254199663971085 L 5.809801677501922 0.38163907688334914 Q 5.819137246525584 0.375821246445424 5.828780318910231 0.37805980736361994 Q 5.838423391294876 0.3802983682818159 5.844241221732801 0.3896339373054776 L 6.001322643556781 0.641694300944343 Q 6.045220818679307 0.7121354126683357 6.05288366928314 0.7698093298287243 Q 6.060546519886971 0.8274832469891127 6.036691032534788 0.8723961151138473 Q 6.012835545182604 0.9173089832385818 5.962762947692054 0.9485137101329076 Q 5.931361488248829 0.9680827761513832 5.900458157014782 0.9714345098279715 Q 5.869554825780735 0.9747862435045599 5.84396501342024 0.9677569118610372 Q 5.818375201059744 0.9607275802175144 5.8012169220510525 0.9502112376280067 Q 5.806567389746795 0.992830159428503 5.786949197331961 1.0398155457350406 Q 5.7673310049171285 1.0868009320415781 5.718955783612699 1.116947871583554 Q 5.66548843374991 1.15026817318258 5.610791070443182 1.1513629093571214 Q 5.556093707136455 1.1524576455316626 5.504938664527264 1.1195310359939046 Q 5.453783621918075 1.0866044264561467 5.412001021500249 1.0195580671043944 L 5.250159556590694 0.7598595106279877 M 5.420327816086185 0.8117031549855716 L 5.5012485485409615 0.941552433223775 Q 5.527164338673537 0.9831381497837224 5.563725603137067 0.9898107760154133 Q 5.600286867600596 0.9964834022471043 5.632537015136882 0.9763854425524537 Q 5.665635850766228 0.9557585891816283 5.674639296489859 0.9201013603899564 Q 5.6836427422134905 0.8844441315982846 5.65825584575709 0.8437071031313973 L 5.577335113302313 0.7138578248931938 L 5.420327816086185 0.8117031549855716 M 5.6749342440042305 0.6530350521330672 L 5.751094933373432 0.7752461375337292 Q 5.775952936153658 0.8151344779075564 5.808326107730684 0.8226496467043573 Q 5.840699279307711 0.830164815501158 5.8721007387509365 0.8105957494826824 Q 5.903502198194162 0.7910266834642069 5.910168678897903 0.7591824055633555 Q 5.916835159601644 0.7273381276625039 5.891977156821418 0.6874497872886768 L 5.8158164674522155 0.5652387018880147 L 5.6749342440042305 0.6530350521330672" fill="#ffffff" fill-rule="nonzero"></path></g><g><path d=" M -2.596109807532053 2.3786770601084446 Q -2.595047337524351 2.3677284913671555 -2.58799819962757 2.3623843679673673 Q -2.580949061730789 2.3570402445675787 -2.570995817420526 2.3580061263927625 L -1.9210489639603612 2.42107820957725 Q -1.910100395219072 2.4221406795849516 -1.9042103155125112 2.4287404493574787 Q -1.8983202358059503 2.4353402191300058 -1.8993827058136525 2.446288787871295 L -1.9213082232453194 2.6722274337142617 Q -1.9312568060447104 2.7747458501099693 -1.9681969189051816 2.8344570556065563 Q -2.005137031765653 2.894168261103143 -2.068155217135776 2.917189084560545 Q -2.1311734025058984 2.9402099080179465 -2.2188585406187302 2.9327054723873576 Q -2.263744728197431 2.929354328605058 -2.297585758852325 2.9260703303994333 Q -2.3314267895072187 2.9227863321938097 -2.375124476289857 2.9175411277319756 Q -2.4665011475792387 2.906664366078234 -2.5239655124545557 2.872454034751624 Q -2.5814298773298727 2.8382437034250145 -2.6048517748202693 2.774181899532606 Q -2.628273672310666 2.7101200956401983 -2.618518265876312 2.6095923281065434 L -2.596109807532053 2.3786770601084446 M -2.5187513445836953 2.4615363879494767 L -2.5334327483264856 2.6128257014654723 Q -2.540097332920252 2.681503087206286 -2.5251462842140056 2.7241465643462126 Q -2.5101952355077586 2.766790041486139 -2.4701784907812443 2.7892602471258963 Q -2.43016174605473 2.8117304527656537 -2.3615809484964343 2.8193903617904468 Q -2.331914391930683 2.8242786561280497 -2.3095195922325913 2.826451890234713 Q -2.2871247925344997 2.828625124341376 -2.264729992836408 2.830798358448039 Q -2.2423351931383166 2.832971592554702 -2.213277608273518 2.833782000985682 Q -2.1165379620989313 2.84116040582791 -2.0660054960254013 2.801857481349857 Q -2.0154730299518713 2.762554556871804 -2.005427858969962 2.6590408160450703 L -1.9912293961397636 2.512728124684206 L -2.5187513445836953 2.4615363879494767 M -2.6393897587171855 3.171112234581636 Q -2.639707822293795 3.1601168339267605 -2.6333840293122464 3.153931396001559 Q -2.627060236330698 3.147745958076358 -2.6170644175535385 3.147456809370349 L -1.9633378695273103 3.1285464839973818 Q -1.9533420507501509 3.128257335291373 -1.946671279321392 3.134066879898763 Q -1.9400005078926332 3.139876424506153 -1.9396824443160237 3.150871825161029 L -1.9381499561741777 3.2038496646799737 Q -1.9378318925975682 3.214845065334849 -1.9441556855791164 3.2210305032600504 Q -1.950479478560665 3.2272159411852517 -1.9604752973378243 3.2275050898912605 L -2.6142018453640525 3.2464154152642277 Q -2.6241976641412124 3.246704563970236 -2.630868435569971 3.240895019362846 Q -2.63753920699873 3.235085474755456 -2.6378572705753394 3.2240900741005807 L -2.6393897587171855 3.171112234581636 M -2.600616430290822 3.744355175579496 Q -2.613282399818407 3.658282106528101 -2.595159633585532 3.595979896743306 Q -2.5770368673526565 3.5336776869585114 -2.539575632932365 3.496325900981025 Q -2.5021143985120733 3.4589741150035387 -2.455906326025172 3.450152888498949 Q -2.4479915610549288 3.4489882016458377 -2.440614506448453 3.4544726401160073 Q -2.4332374518419777 3.4599570785861773 -2.4319271791322272 3.468861189177701 L -2.424502300443643 3.5193178158630016 Q -2.422755270163976 3.5311899633183663 -2.427817828751825 3.5379995521858825 Q -2.432880387339674 3.544809141053398 -2.4405039805966395 3.5479525191490704 Q -2.4633747603675356 3.5573826534360866 -2.483858251191486 3.579601487871429 Q -2.5043417420154364 3.601820322306771 -2.5145083012346015 3.6391986726401284 Q -2.5246748604537665 3.676577022973486 -2.5165220524819873 3.731980377765189 Q -2.5040016688110414 3.817064101195304 -2.467930400168113 3.8526922302296738 Q -2.4318591315251847 3.888320359264043 -2.3814025048398837 3.8808954805754587 Q -2.34677540809507 3.875799975593097 -2.3286345731552776 3.851398948817832 Q -2.3104937382154853 3.8269979220425663 -2.3000806403458305 3.780991755143367 Q -2.2896675424761757 3.7349855882441676 -2.280071640015291 3.662819677621761 Q -2.2699231495030427 3.5875401442788744 -2.2521776300897005 3.536411908041442 Q -2.234432110676358 3.4852836718040097 -2.2012475903199973 3.4566473730082805 Q -2.1680630699636363 3.4280110742125514 -2.1116703695506533 3.419712680384133 Q -2.0582457060015114 3.411851044125632 -2.0119765272545655 3.4343546682356103 Q -1.9657073485076197 3.4568582923455886 -1.9329664858604696 3.5076326551000383 Q -1.9002256232133194 3.558407017854488 -1.8890155122521235 3.634586630693079 Q -1.879989189140511 3.6959260592124643 -1.8895436495579285 3.744332797236545 Q -1.899098109975346 3.792739535260626 -1.921791953004751 3.8274128605778888 Q -1.944485796034156 3.8620861858951514 -1.9733208093982662 3.8825016703197637 Q -2.0021558227623766 3.902917154744376 -2.0316906055441497 3.908274076064824 Q -2.0386160248931127 3.909293177061296 -2.0457747007146296 3.9052927570230467 Q -2.052933376536147 3.9012923369847976 -2.0545348209591747 3.890409535150713 L -2.0622508713610372 3.8379742172228517 Q -2.0632699723575096 3.8310487978738887 -2.0604044837971798 3.82304636228773 Q -2.05753899523685 3.815043926701571 -2.047238536829321 3.809485099793422 Q -2.0075488814966578 3.7975800059435443 -1.985670638366363 3.753929777106438 Q -1.9637923952360676 3.7102795482693325 -1.973109890060958 3.6469614285073866 Q -1.982572970742487 3.58265396312416 -2.013202838468373 3.546225111878276 Q -2.043832706194259 3.5097962606323927 -2.096268024122121 3.5175123110342548 Q -2.1299057752456547 3.5224622301599777 -2.1493999204483245 3.544535478738681 Q -2.1688940656509943 3.566608727317384 -2.179743921090566 3.6096468573527423 Q -2.1905937765301378 3.6526849873881004 -2.199782676796297 3.7207479296687467 Q -2.2099014119333535 3.803098468217235 -2.2267155009661392 3.8571219483901893 Q -2.243529589998925 3.911145428563143 -2.276073851688006 3.9406982800518335 Q -2.3086181133770878 3.9702511315405236 -2.365010813790071 3.9785495253689414 Q -2.427339587930737 3.9877214343371925 -2.4761698013467988 3.9615515994553707 Q -2.525000014762861 3.935381764573549 -2.5569119953329658 3.879936967738379 Q -2.5888239759030705 3.824492170903209 -2.600616430290822 3.744355175579496 M -2.4216147431122614 4.507884609671443 Q -2.4499403903367747 4.420353713929925 -2.4362192077484206 4.352324461777803 Q -2.422498025160067 4.284295209625681 -2.374005747157103 4.236019967792177 Q -2.3255134691541395 4.187744725958673 -2.249371886399907 4.159951572562911 Q -2.2106714398979754 4.1463767635200135 -2.1659545692474174 4.131906052437925 Q -2.1212376985968593 4.117435341355837 -2.0800186315956664 4.105147602932875 Q -2.0020297240224436 4.083062986215907 -1.9344484228899166 4.093775956729948 Q -1.8668671217573896 4.104488927243988 -1.8158915553194044 4.151581831447558 Q -1.7649159888814192 4.198674735651127 -1.736590341656906 4.286205631392645 Q -1.7153461062385214 4.351853803198783 -1.7174129906234574 4.4071776496751385 Q -1.719479875008394 4.462501496151493 -1.739303286252773 4.505177981089176 Q -1.7591266974971518 4.547854466026858 -1.7911659228422465 4.5771416311215924 Q -1.8232051481873413 4.606428796216327 -1.8625491299992403 4.621262915508855 Q -1.8708040475476007 4.624985325517139 -1.878513852780301 4.6206484022674355 Q -1.8862236580130016 4.616311479017731 -1.8889946452414865 4.607748673999539 L -1.905928456082228 4.555420421110588 Q -1.908699443310713 4.546857616092396 -1.9059435979656234 4.539133930674544 Q -1.9031877526205336 4.531410245256692 -1.8917429188926402 4.524553439809482 Q -1.8227660290554484 4.484364029906028 -1.8094915357884467 4.431194134020251 Q -1.796217042521445 4.378024238134475 -1.81746127793983 4.312376066328336 Q -1.8424001629961948 4.235310821164608 -1.9001606105591424 4.204602830391392 Q -1.9579210581220896 4.173894839618175 -2.0539869985114954 4.201829318261943 Q -2.132927328864517 4.224221822448743 -2.213826025517745 4.253554413193663 Q -2.3080446410881605 4.287197428516227 -2.3368636664869316 4.345923179044125 Q -2.3656826918857026 4.404648929572025 -2.340743806829338 4.481714174735751 Q -2.3194995714109528 4.54736234654189 -2.2775915434496063 4.58267476917743 Q -2.23568351548826 4.61798719181297 -2.156238451676791 4.610146156422685 Q -2.142946293129908 4.6089978876542705 -2.1361879106770068 4.613642698373806 Q -2.1294295282241054 4.618287509093342 -2.1266585409956202 4.626850314111534 L -2.1097247301548787 4.679178567000485 Q -2.106953742926394 4.687741372018677 -2.1101852996613832 4.695619001171446 Q -2.1134168563963724 4.703496630324214 -2.1222875488843957 4.7053161947729 Q -2.1628630805756215 4.716344622946231 -2.206461966224556 4.711534511703114 Q -2.25006085187349 4.706724400459997 -2.2911284985362537 4.683752713591541 Q -2.3321961451990174 4.660781026723085 -2.3662833264464473 4.617156904100334 Q -2.400370507693877 4.5735327814775815 -2.4216147431122614 4.507884609671443 M -2.1081120603569063 5.248622853394345 Q -2.1481496363213566 5.172511142660116 -2.150440295241958 5.104791109570125 Q -2.1527309541625597 5.037071076480133 -2.1136654866819997 4.979233897688934 Q -2.0746000192014393 4.921396718897733 -1.9941553820569573 4.874560190902026 Q -1.9556800600064734 4.8531908298186535 -1.9198367543700054 4.83433592485865 Q -1.8839934487335375 4.815481019898648 -1.8445870202652757 4.795881698599793 Q -1.7613029773419406 4.756590882951042 -1.6908126682613758 4.758492546887289 Q -1.6203223591808107 4.760394210823534 -1.5646977301202565 4.800623561326318 Q -1.5090731010597023 4.8408529118291 -1.4708977379308077 4.913424542994295 Q -1.4331879280108022 4.985111154267231 -1.4315495123780146 5.0537392505122405 Q -1.429911096745227 5.122367346757249 -1.4680454578080095 5.1819745653329665 Q -1.506179818870792 5.241581783908684 -1.5862049893319043 5.287067738803244 Q -1.6242147581734991 5.309322119778875 -1.6600580638099671 5.328177024738878 Q -1.6959013694464353 5.34703192969888 -1.7357733511235858 5.3657462311054775 Q -1.8194768607302905 5.406387619855375 -1.8895016166019665 5.405370975811387 Q -1.9595263724736425 5.404354331767399 -2.0140332050374936 5.364101938001856 Q -2.068540037601345 5.323849544236314 -2.1081120603569063 5.248622853394345 M -2.0328853695149363 5.209050830638783 Q -1.9975033256393757 5.276312342450427 -1.9342130799643718 5.29782035961607 Q -1.8709228342893676 5.319328376781714 -1.7779035725511894 5.274916475835186 Q -1.7371465709817802 5.255736621219699 -1.7057283648066044 5.239209482304141 Q -1.6743101586314286 5.222682343388583 -1.636300389789834 5.200427962412952 Q -1.5761651236417773 5.166534751215098 -1.5490497686835536 5.1257179957647985 Q -1.52193441372533 5.084901240314498 -1.5223905910268298 5.04107440033864 Q -1.5228467683283298 4.99724756036278 -1.5461244287727776 4.9529965657498565 Q -1.5694020892172253 4.908745571136933 -1.6052590622090643 4.883540859516631 Q -1.6411160352009029 4.85833614789633 -1.6901123909769078 4.857556968410481 Q -1.7391087467529125 4.856777788924632 -1.801571778945414 4.886245900661195 Q -1.8409782074136753 4.905845221960051 -1.8723964135888513 4.922372360875609 Q -1.9038146197640269 4.938899499791167 -1.943174961706769 4.960734414083428 Q -2.0324697977738357 5.012226474168025 -2.0503686055821664 5.077007896497582 Q -2.0682674133904975 5.141789318827139 -2.0328853695149363 5.209050830638783 M -1.6972499550935778 5.875719306873969 Q -1.7063773306812167 5.863815903374038 -1.7059945885475778 5.852811199449845 Q -1.7056118464139387 5.841806495525653 -1.699131582143207 5.830536793888898 L -1.3245660025157289 5.262312694999796 Q -1.3210216245274418 5.257074624298083 -1.317053823360798 5.25403216576887 Q -1.310705341494168 5.249164232122129 -1.3022930298591402 5.250274643287046 Q -1.293880718224112 5.251385054451963 -1.2890127845773711 5.257733536318593 L -1.257371215873556 5.298998668451687 Q -1.2500693154034446 5.308521391251632 -1.2512722608321045 5.3176347288562456 Q -1.2524752062607645 5.326748066460859 -1.255226024015723 5.33137764545673 L -1.5865187936738097 5.8311366881685895 L -1.0173057670312655 5.641659696688266 Q -1.0121209824529367 5.640204358625711 -1.0033118907012444 5.641010523937706 Q -0.9945027989495518 5.641816689249702 -0.9872008984794405 5.651339412049647 L -0.9555593297756253 5.692604544182741 Q -0.9506913961288844 5.698953026049371 -0.9514975614408799 5.707762117801063 Q -0.9523037267528753 5.716571209552756 -0.9586522086195053 5.721439143199497 Q -0.962620009786149 5.7244816017287095 -0.9685983545978066 5.726545431497108 L -1.6151597267369278 5.9400481060882635 Q -1.627116416360243 5.94417576562506 -1.6378435174932062 5.941689945582664 Q -1.6485706186261695 5.939204125540268 -1.6576979942138086 5.927300722040337 L -1.6972499550935778 5.875719306873969 M -1.306961725575031 6.3341314812666925 Q -1.3149864086591028 6.326607887617364 -1.3149177486394479 6.317762251077142 Q -1.314849088619793 6.308916614536921 -1.3080094580294945 6.301621448096856 L -0.8613815804830052 5.825247079560598 Q -0.8538579868336769 5.817222396476526 -0.8450351270859437 5.816584316644663 Q -0.8362122673382106 5.8159462368128 -0.8281875842541389 5.823469830462129 L -0.5268972102794461 6.105946573841455 Q -0.5188725271953745 6.113470167490783 -0.5189411872150294 6.122315804031005 Q -0.5190098472346842 6.131161440571226 -0.5265334408840125 6.139186123655298 L -0.5525240371271467 6.166907756127546 Q -0.560047630776475 6.174932439211617 -0.5685285089946932 6.175205760721477 Q -0.5770093872129114 6.1754790822313375 -0.5850340702969831 6.167955488582009 L -0.8330697292591999 5.935408048511862 L -0.9828576391867361 6.095172193549289 L -0.7508713463926627 6.31267244632078 Q -0.7428466633085911 6.320196039970108 -0.742915323328246 6.32904167651033 Q -0.7429839833479008 6.337887313050551 -0.7505075769972291 6.345911996134623 L -0.7758142101813333 6.372904111962864 Q -0.7826538407716318 6.380199278402929 -0.7914767005193649 6.380837358234793 Q -0.800299560267098 6.381475438066656 -0.8083242433511698 6.373951844417328 L -1.0403105361452432 6.156451591645837 L -1.195570150545018 6.322051869835317 L -0.9416983584307492 6.560071014377703 Q -0.9336736753466774 6.567594608027032 -0.9334003538368174 6.57607548624525 Q -0.9331270323269574 6.584556364463468 -0.9406506259762857 6.59258104754754 L -0.9673251852784497 6.621032196663794 Q -0.9741648158687481 6.6283273631038595 -0.9829876756164813 6.628965442935723 Q -0.9918105353642144 6.629603522767586 -0.999835218448286 6.622079929118257 L -1.306961725575031 6.3341314812666925 M -0.7505616912552635 6.819065783519659 Q -0.7597037220330839 6.812948327082758 -0.7610754236537262 6.804209423566645 Q -0.7624471252743683 6.795470520050532 -0.7568858012408217 6.787159582979787 L -0.39373134185023045 6.244455392260084 Q -0.3876138854133292 6.235313361482263 -0.3790124625490764 6.233248046806406 Q -0.37041103968482364 6.2311827321305495 -0.3612690089070032 6.237300188567451 L -0.158482144380805 6.372996494985988 Q -0.06456855548137708 6.435839456565064 -0.03919138819225143 6.516592161661424 Q -0.013814220903125896 6.597344866757784 -0.07165199085201035 6.683778612293541 Q -0.11447418591031888 6.747772827738284 -0.17344371519539126 6.766669775002247 Q -0.23241324448046363 6.78556672226621 -0.2978319448111245 6.764652764079219 L -0.31777473321397764 7.071368080277676 Q -0.31861824651288184 7.078023039730187 -0.32139890852965514 7.08217850826556 Q -0.3258479677564924 7.088827257922157 -0.3345868712726051 7.090198959542799 Q -0.34332577478871784 7.091570661163441 -0.3499745244453145 7.087121601936604 L -0.3898670223848945 7.06042724657558 Q -0.40399561540516243 7.050972995718551 -0.40563917343156713 7.039044093128043 Q -0.4072827314579719 7.027115190537534 -0.4072641020702275 7.016298552753735 L -0.386515059143959 6.724561552670366 L -0.5319564578820111 6.6272383820833 L -0.6754386179475127 6.8416605585085435 Q -0.6809999419810593 6.849971495579289 -0.6900169116988493 6.851758744053468 Q -0.6990338814166394 6.853545992527648 -0.7081759121944597 6.847428536090747 L -0.7505616912552635 6.819065783519659 M -0.4846852035968651 6.556595416981962 L -0.34755474192955893 6.6483572635354795 Q -0.28522271389896514 6.690067193787079 -0.23695407603153396 6.6844646409383515 Q -0.18868543816410266 6.678862088089625 -0.1542052291561139 6.627334278251 Q -0.12028115255147975 6.576637562119451 -0.13281983595235303 6.52974373077062 Q -0.1453585193532263 6.482849899421788 -0.20852164109089455 6.440583836766834 L -0.34565210275820074 6.348821990213315 L -0.4846852035968651 6.556595416981962 M 0.19616831099513576 7.358167430061766 Q 0.18589578792972472 7.3542335681080875 0.1826171483212195 7.346017697958338 Q 0.17933850871271426 7.3378018278085895 0.18291474685242182 7.328463170476398 L 0.41680072118929523 6.717714980951048 Q 0.4203769593290028 6.7083763236188565 0.42830470851912783 6.7044519392367565 Q 0.4362324577092529 6.700527554854657 0.44650498077466394 6.704461416808335 L 0.4959998646352809 6.723415478948785 Q 0.5053385219674728 6.726991717088492 0.5090840944425876 6.735386399145227 Q 0.5128296669177024 6.743781081201961 0.5092534287779948 6.753119738534153 L 0.2982553785352497 7.304100521133474 L 0.60829880196402 7.422831627371765 Q 0.6185713250294311 7.426765489325443 0.6223168975045459 7.4351601713821776 Q 0.6260624699796608 7.443554853438912 0.6221286080259825 7.453827376504323 L 0.6078236554671522 7.491182005833091 Q 0.6042474173274447 7.5005206631652825 0.5958527352707101 7.504266235640397 Q 0.5874580532139755 7.508011808115512 0.5771855301485644 7.504077946161834 L 0.19616831099513576 7.358167430061766 M 0.8458175077780171 7.580743765829812 Q 0.8350681943283143 7.578408758258082 0.8305847096481354 7.57078325072595 Q 0.8261012249679563 7.563157743193818 0.828223959124075 7.553385640057724 L 0.9668384995186219 6.915267305270822 Q 0.9691735070903524 6.90451799182112 0.9764165461734855 6.89943976527633 Q 0.9836595852566188 6.89436153873154 0.9944088987063215 6.896696546303271 L 1.3979967582269808 6.984365466950971 Q 1.4087460716766835 6.986700474522701 1.4132295563568624 6.994325982054833 Q 1.4177130410370413 7.001951489586965 1.415378033465311 7.012700803036668 L 1.40731164367206 7.0498347949538225 Q 1.4049766361003295 7.060584108403526 1.3978397337250024 7.0651737297915105 Q 1.3907028313496752 7.069763351179495 1.3799535178999722 7.067428343607765 L 1.0477020112727953 6.995255382299732 L 1.0012141332537972 7.209264440980178 L 1.3119670129815686 7.2767673871447505 Q 1.3227163264312716 7.279102394716481 1.3271998111114502 7.286727902248613 Q 1.3316832957916294 7.2943534097807445 1.3293482882198988 7.305102723230448 L 1.32149417184226 7.341259504833993 Q 1.3193714376861414 7.351031607970087 1.3121283986030081 7.356109834514876 Q 1.3048853595198748 7.361188061059666 1.294136046070172 7.358853053487935 L 0.9833831663424006 7.291350107323362 L 0.9351971009985076 7.513176848512684 L 1.2752662901345595 7.587047997145612 Q 1.2860156035842623 7.589383004717343 1.2906052249722473 7.59651990709267 Q 1.295194846360232 7.6036568094679975 1.2928598387885013 7.6144061229177 L 1.2845811755796388 7.652517325148464 Q 1.28245844142352 7.6622894282845575 1.275215402340387 7.667367654829348 Q 1.267972363257254 7.672445881374137 1.2572230498075512 7.670110873802407 L 0.8458175077780171 7.580743765829812 M 1.5036774855002728 7.708220223610401 Q 1.495686913629186 7.707831943849153 1.4899851945468066 7.7015478051249024 Q 1.4842834754644274 7.695263666400652 1.4846717552256752 7.687273094529565 Q 1.4849144300764552 7.682278987110135 1.4862044613812768 7.676334593176976 L 1.7653143150758939 7.042133765701507 Q 1.769794950712997 7.032339690743273 1.777077910921134 7.026686506631049 Q 1.784360871129271 7.021033322518826 1.7983443719036731 7.0217128121010095 L 1.8662642328079118 7.025013190071617 Q 1.880247733582314 7.0256926796538 1.886948274148579 7.0320253533482076 Q 1.8936488147148443 7.038358027042614 1.8971587509488277 7.0485403817620975 L 2.1124655317777132 7.706766019464779 Q 2.114171964924549 7.712856018308406 2.113929290073769 7.717850125727836 Q 2.113541010312521 7.7258406975989224 2.10725687158827 7.731542416681302 Q 2.100972732864019 7.737244135763681 2.092982160992932 7.736855856002433 L 2.042042265314753 7.734380572524478 Q 2.0300564075081224 7.733798152882606 2.0248540991676864 7.727538281643433 Q 2.01965179082725 7.72127841040426 2.0178968227102585 7.7161872330445185 L 1.9698536068586856 7.571685158974146 L 1.6422401601441226 7.555765688762984 L 1.58041301276825 7.694928916116197 Q 1.5791715164335844 7.69987448856547 1.5728873777093333 7.705576207647849 Q 1.5666032389850821 7.7112779267302285 1.5546173811784518 7.7106955070883565 L 1.5036774855002728 7.708220223610401 M 1.6753799906102274 7.471274555283323 L 1.9450617912594104 7.484378997225439 L 1.8274508053401939 7.123245149474899 L 1.6753799906102274 7.471274555283323 M 2.3812164117069856 7.719480450836468 Q 2.370299500585034 7.720829914268879 2.3635474115811808 7.715115083205406 Q 2.356795322577328 7.709400252141932 2.3555685376387716 7.699475787485612 L 2.275459481151046 7.051408245427961 Q 2.2741100177186335 7.04049133430601 2.2792672863023635 7.033304361316268 Q 2.2844245548860935 7.026117388326527 2.295341466008045 7.024767924894115 L 2.5374984036222363 6.994834372393341 Q 2.6496448542386446 6.980971702587655 2.721648281144701 7.025474584671676 Q 2.793651708050757 7.069977466755697 2.806410271411742 7.173191899181418 Q 2.8158565154386253 7.249610277035076 2.783597233463794 7.302467052631667 Q 2.7513379514889627 7.355323828228258 2.688167376140512 7.382277091669736 L 2.8736366112134273 7.627375363474063 Q 2.8773500215734567 7.632962006786288 2.877963414042735 7.637924239114447 Q 2.87894484199358 7.6458638108395025 2.873230010930106 7.652615899843356 Q 2.8675151798666323 7.659367988847209 2.8595756081415766 7.660349416798054 L 2.811938177791244 7.666237984503124 Q 2.7950665878755014 7.66832351889867 2.786022909705745 7.660372928658828 Q 2.776979231535989 7.652422338418986 2.7699204462974967 7.644226391191432 L 2.5948553713415365 7.409933370529987 L 2.4211772398559486 7.431402106954723 L 2.4528282912707007 7.687453295087761 Q 2.454055076209257 7.6973777597440804 2.448401584392711 7.70462607198075 Q 2.4427480925761653 7.711874384217419 2.431831181454214 7.7132238476498305 L 2.3812164117069856 7.719480450836468 M 2.41074956787822 7.347044157376008 L 2.574503234707489 7.3268022058898294 Q 2.6489367196298836 7.317601318850657 2.681792866301813 7.281800150910593 Q 2.714649012973742 7.245998982970529 2.7070429463546932 7.184467302101349 Q 2.6995595582295 7.123928067697801 2.659409550430554 7.09664754582331 Q 2.6192595426316085 7.069367023948819 2.5438336112435818 7.078690589481846 L 2.380079944414313 7.098932540968025 L 2.41074956787822 7.347044157376008 M 3.166112836583799 7.592496994608365 Q 3.155596667172402 7.5957234758047765 3.1479540176955787 7.591269274532448 Q 3.1403113682187556 7.586815073260119 3.137378203494745 7.577254919249758 L 2.945842547016871 6.952976862373185 Q 2.94261606582046 6.942460692961788 2.9464456011560696 6.934486694020647 Q 2.9502751364916793 6.926512695079507 2.9607913059030766 6.923286213883095 L 3.0047680143507374 6.909793656152647 Q 3.01624019916317 6.906273858483836 3.0235895321675925 6.909772044355128 Q 3.030938865172015 6.91327023022642 3.032774829990254 6.915844959957127 L 3.4997633440587657 7.306031745648395 L 3.3531051078582497 6.828024045130346 Q 3.3498786266618383 6.817507875718949 3.353708161997448 6.809533876777808 Q 3.3575376973330577 6.801559877836667 3.368053866744455 6.798333396640255 L 3.4139426059941878 6.784254205965006 Q 3.424458775405585 6.781027724768594 3.4325794325829264 6.785335267804722 Q 3.4407000897602678 6.78964281084085 3.443926570956679 6.800158980252247 L 3.635168910962152 7.423481021727785 Q 3.638102075686162 7.433041175738145 3.633941190886235 7.441639840616005 Q 3.6297803060863076 7.450238505493864 3.6202201520759463 7.453171670217874 L 3.5743314128262136 7.467250860893124 Q 3.5638152434148167 7.470477342089535 3.556797259874712 7.466354490281525 Q 3.549779276334607 7.462231638473514 3.5472806125877328 7.460906240616244 L 3.0827146962822627 7.075206215457754 L 3.2281996665931745 7.54938985437166 Q 3.231132831317185 7.558950008382022 3.226825288281057 7.5670706655593625 Q 3.222517745244929 7.575191322736704 3.212001575833532 7.578417803933116 L 3.166112836583799 7.592496994608365 M 4.228974734538021 7.179893325355876 Q 4.219521564175727 7.1855180538027845 4.211041586259485 7.183000123196106 Q 4.202561608343243 7.1804821925894275 4.197448218846054 7.171888401350979 L 3.8635438846796157 6.610713833480278 Q 3.857919156232708 6.601260663117984 3.8597517278026046 6.59260666511468 Q 3.8615842993725007 6.583952667111374 3.8710374697347945 6.578327938664467 L 4.089319767191392 6.448447845435868 Q 4.152913822355912 6.410608763156669 4.212022119398711 6.403365889369266 Q 4.27113041644151 6.396123015581864 4.321200390268504 6.421603355472929 Q 4.371270364095497 6.447083695363993 4.407575429525538 6.508099613156978 Q 4.443880494955581 6.569115530949964 4.442132051877022 6.62484651826224 Q 4.440383608798464 6.680577505574516 4.405819581342172 6.729070577306473 Q 4.37125555388588 6.777563649038429 4.30766149872136 6.8154027313176275 L 4.155551393800818 6.905909725417872 L 4.283386131230541 7.12075450637909 Q 4.28849952072773 7.129348297617538 4.286237259595911 7.138257965095702 Q 4.2839749984640925 7.147167632573868 4.274521828101799 7.152792361020775 L 4.228974734538021 7.179893325355876 M 4.111739542900586 6.834233217964622 L 4.260412131325748 6.745771579663253 Q 4.324006186490268 6.707932497384054 4.338929028731806 6.660653445157575 Q 4.353851870973342 6.613374392931095 4.321637517141052 6.559233508128868 Q 4.28993450225848 6.505952002450486 4.241611329509622 6.495141314429641 Q 4.193288156760764 6.484330626408795 4.127975343348554 6.523192386587431 L 3.979302754923392 6.6116540248888 L 4.111739542900586 6.834233217964622 M 4.881459863089648 6.757544777616155 Q 4.873080359499607 6.764671061331001 4.864298735346266 6.763606600326801 Q 4.855517111192925 6.762542139322601 4.849038671452156 6.7549244087862 L 4.425996556379942 6.257486604759176 Q 4.418870272665096 6.249107101169135 4.419229925155437 6.240268512476012 Q 4.4195895776457785 6.23142992378289 4.42796908123582 6.224303640068044 L 4.613841706324019 6.066229710393281 Q 4.699922061385357 5.9930233413225915 4.784534813551683 5.990639610876444 Q 4.869147565718009 5.988255880430298 4.936523339022006 6.067480278008874 Q 4.986407325025928 6.1261368031391665 4.988499495203511 6.188024789242675 Q 4.990591665381094 6.249912775346183 4.952623679348305 6.307144165654421 L 5.242263226713344 6.410007825914861 Q 5.248435609718726 6.412634932314472 5.251674829589111 6.416443797582672 Q 5.256857581381725 6.422537982011794 5.255793120377526 6.431319606165134 Q 5.254728659373327 6.440101230318475 5.248634474944205 6.44528398211109 L 5.212069368369478 6.476380492866782 Q 5.1991192264575945 6.487393840426089 5.187194446261781 6.485720634735943 Q 5.175269666065968 6.484047429045797 5.164868431977435 6.481078535407496 L 4.88985896978408 6.381525556024046 L 4.7565486853970524 6.494898251487503 L 4.923692430708892 6.691435699326664 Q 4.930170870449661 6.699053429863065 4.929430331432499 6.7082159405432265 Q 4.928689792415338 6.717378451223388 4.920310288825297 6.724504734938233 L 4.881459863089648 6.757544777616155 M 4.701481947600516 6.43014754192809 L 4.827174501451142 6.323253286205402 Q 4.884307480474154 6.274664988149635 4.892085998275418 6.226698909919124 Q 4.899864516076681 6.178732831688614 4.859698189683914 6.131502902362924 Q 4.820179707265223 6.085034746090875 4.7716439836368965 6.084304313428196 Q 4.72310826000857 6.083573880765518 4.6652135079319175 6.132810022795362 L 4.539520954081292 6.23970427851805 L 4.701481947600516 6.43014754192809 M 5.460476386326623 6.224722599097991 Q 5.453368232494411 6.233117487369886 5.444530441879811 6.233496244617339 Q 5.435692651265212 6.233875001864792 5.428060934654398 6.227413043835508 L 4.929709839968269 5.805447184523245 Q 4.921314951696374 5.798339030691032 4.920231510716916 5.789559728005509 Q 4.919148069737457 5.780780425319986 4.92625622356967 5.772385537048091 L 5.193135090179111 5.457195641021489 Q 5.2002432440113235 5.448800752749594 5.209081034625923 5.448421995502141 Q 5.217918825240522 5.448043238254687 5.226313713512417 5.4551513920869 L 5.2553142366335095 5.47970683259818 Q 5.263709124905404 5.486814986430392 5.264410980054322 5.495271191214451 Q 5.265112835203239 5.50372739599851 5.258004681371027 5.512122284270405 L 5.038298108375361 5.771600649038068 L 5.205432702152179 5.913117529879393 L 5.410922967483419 5.670428941655521 Q 5.418031121315632 5.662034053383626 5.426868911930232 5.661655296136173 Q 5.435706702544831 5.661276538888719 5.444101590816726 5.668384692720932 L 5.472338942276736 5.692293937429284 Q 5.47997065888755 5.698755895458568 5.481054099867008 5.707535198144091 Q 5.482137540846466 5.716314500829614 5.475029387014254 5.724709389101509 L 5.269539121683014 5.967397977325382 L 5.442779088748483 6.114084424590135 L 5.667655228167575 5.848500686533821 Q 5.674763381999789 5.840105798261926 5.6832195867838475 5.839403943113009 Q 5.6916757915679055 5.838702087964091 5.700070679839801 5.845810241796304 L 5.729834374621974 5.8710118781105125 Q 5.737466091232788 5.877473836139797 5.738549532212246 5.886253138825319 Q 5.739632973191704 5.895032441510843 5.732524819359491 5.903427329782738 L 5.460476386326623 6.224722599097991 M 6.027365120261634 5.478858056893134 Q 5.982388778252935 5.553330391753246 5.928775476876657 5.58987644373614 Q 5.875162175500379 5.626422495719033 5.822497474295451 5.631415415405514 Q 5.769832773090522 5.636408335091995 5.728566653292331 5.613822778716264 Q 5.721718622500597 5.609687023129258 5.7195148988967555 5.60076269669653 Q 5.717311175292915 5.591838370263803 5.721963900328297 5.5841343356231015 L 5.748329342195465 5.540478139325795 Q 5.754532975575975 5.530206093138194 5.762770815360031 5.528171886734648 Q 5.771008655144087 5.526137680331102 5.778890624832573 5.528561428220175 Q 5.8025365338980315 5.535832671887395 5.832475043867892 5.531717380793857 Q 5.862413553837753 5.527602089700321 5.8940340289140805 5.505226979511825 Q 5.925654503990408 5.482851869323329 5.954604793099455 5.434915653781188 Q 5.999064165659778 5.361299322770043 5.993893310925512 5.310863598711425 Q 5.988722456191247 5.260427874652806 5.94506625989394 5.234062432785638 Q 5.915106125180102 5.215968502092483 5.885587199287235 5.223257741705189 Q 5.856068273394368 5.230546981317895 5.8187695522333955 5.259422670050045 Q 5.781470831072423 5.288298358782194 5.728162892706778 5.337879239242354 Q 5.672448042147038 5.389511161801037 5.626233412400828 5.4176751103420475 Q 5.5800187826546175 5.445839058883058 5.536197858206013 5.4468272797438715 Q 5.492376933757409 5.447815500604685 5.443584714366302 5.418348242047262 Q 5.397360506522094 5.390431891834967 5.375972456943905 5.343636578658956 Q 5.354584407365715 5.296841265482946 5.3616176308022165 5.236836817580376 Q 5.368650854238718 5.176832369677806 5.408457501763658 5.110920073307362 Q 5.44050960756296 5.057847834671421 5.478672750420389 5.026573651592666 Q 5.516835893277818 4.9952994685139105 5.556402052024056 4.982980009026276 Q 5.595968210770294 4.970660549538641 5.6312038431867615 4.973249025579011 Q 5.666439475603229 4.975837501619381 5.69263656052061 4.990490581221689 Q 5.698628587463377 4.99410936736032 5.701607765239782 5.001749688019597 Q 5.704586943016187 5.009390008678874 5.698900279084053 5.018806051017509 L 5.671500898320133 5.064174255012749 Q 5.667882112181502 5.070166281955517 5.660580825922816 5.074518433029265 Q 5.65327953966413 5.078870584103012 5.641795619531992 5.076607935566745 Q 5.603597645034098 5.060548211277137 5.558950759327994 5.080313220681285 Q 5.5143038736218895 5.100078230085433 5.4812178289258355 5.154862476419309 Q 5.4476148147814065 5.210502726602151 5.448077648346355 5.258095118694702 Q 5.448540481911303 5.305687510787254 5.493908685906543 5.333086891551173 Q 5.5230128167714145 5.350663852795952 5.552095322892309 5.34603159225404 Q 5.581177829013202 5.341399331712126 5.616925641829048 5.315091654526877 Q 5.652673454644893 5.288783977341628 5.703057511368068 5.24211014282896 Q 5.7632471519154045 5.185003162775884 5.810584688082259 5.154012717963785 Q 5.857922224249114 5.123022273151687 5.901832116221611 5.1209195637177185 Q 5.945742008194107 5.11881685428375 5.9945342275852145 5.148284112841173 Q 6.048462470070123 5.180853188088851 6.069494649552743 5.2321064555574806 Q 6.090526829035363 5.28335972302611 6.07988323730772 5.346440734076467 Q 6.069239645580077 5.409521745126824 6.027365120261634 5.478858056893134 M 6.277965782515613 4.989547335542912 Q 6.273844579265948 4.99974614350144 6.265570081881545 5.002873873194926 Q 6.257295584497142 5.0060016028884124 6.24802394089848 5.002255054479626 L 5.642585613905821 4.757605443385864 Q 5.6323868059472915 4.753484240136199 5.628608166653433 4.74548599751129 Q 5.624829527359575 4.737487754886382 5.6289507306092395 4.727288946927853 L 5.783683179892124 4.344370066303092 Q 5.78780438314179 4.334171258344564 5.796078880526192 4.331043528651078 Q 5.804353377910594 4.327915798957592 5.814552185869124 4.332037002207256 L 5.849784431544041 4.346273886160645 Q 5.8599832395025695 4.350395089410311 5.863298296616495 4.35820600461478 Q 5.86661335373042 4.366016919819249 5.8624921504807554 4.376215727777778 L 5.735109504582012 4.691451610132303 L 5.938158499392721 4.773501020284728 L 6.057298738792133 4.478662753847261 Q 6.061419942041798 4.4684639458887325 6.0696944394262005 4.465336216195246 Q 6.077968936810604 4.46220848650176 6.088167744769132 4.466329689751425 L 6.122472826084183 4.480191918863936 Q 6.131744469682846 4.483938467272722 6.135523108976704 4.49193670989763 Q 6.139301748270563 4.49993495252254 6.135180545020898 4.510133760481068 L 6.016040305621486 4.804972026918535 L 6.2265066153111235 4.8900186757979895 L 6.356886499936896 4.567365478564535 Q 6.361007703186561 4.557166670606007 6.36881861839103 4.553851613492081 Q 6.3766295335955 4.550536556378155 6.386828341554029 4.554657759627821 L 6.4229877515888125 4.569269298422088 Q 6.432259395187475 4.5730158468308755 6.436038034481333 4.581014089455784 Q 6.4398166737751925 4.589012332080692 6.435695470525527 4.5992111400392215 L 6.277965782515613 4.989547335542912 M 6.528501287238356 4.2973667049064455 Q 6.5260661842506105 4.308093786216806 6.5183992163920825 4.312505996984243 Q 6.510732248533554 4.316918207751681 6.500980356433226 4.314704477762821 L 5.864181802281862 4.17014790949029 Q 5.853454720971501 4.167712806502545 5.848444229099605 4.16042274674959 Q 5.843433737227707 4.153132686996635 5.845868840215453 4.142405605686275 L 5.899883851943627 3.9044594384382916 Q 5.9248990008177405 3.7942630577045944 5.991194646875948 3.741633338783391 Q 6.057490292934155 3.689003619862187 6.158909970777557 3.7120264117463266 Q 6.233999539950077 3.7290721326605456 6.272773356179554 3.7773535076927742 Q 6.311547172409032 3.825634882725003 6.31546514947318 3.8942034575659954 L 6.608956921170321 3.8029095369246217 Q 6.6154721754271755 3.8013122072878396 6.620348121477339 3.802419072282269 Q 6.628149635157601 3.804190056273357 6.632561845925038 3.811857024131885 Q 6.636974056692476 3.8195239919904136 6.635203072701388 3.827325505670675 L 6.624577168754862 3.8741345877522457 Q 6.620813827773801 3.8907128043228023 6.610266140892419 3.8965219610130903 Q 6.599718454011037 3.9023311177033784 6.589613513127427 3.906189895973601 L 6.309816368940652 3.9913635897113116 L 6.271076094135609 4.1620217014670375 L 6.52267491032405 4.219135935179615 Q 6.532426802424378 4.221349665168474 6.537326607796832 4.229127319526445 Q 6.542226413169286 4.236904973884418 6.53979131018154 4.247632055194777 L 6.528501287238356 4.2973667049064455 M 6.188185011282828 4.143204996561731 L 6.224711556099011 3.9822987769063323 Q 6.241314531015458 3.9091595861538786 6.2187868718582076 3.8661043359177603 Q 6.196259212700958 3.823049085681642 6.135797481678929 3.8093239597507127 Q 6.076310939866934 3.7958202068186693 6.037024770686549 3.8243306770205128 Q 5.997738601506165 3.8528411472223563 5.980914253590832 3.926955527184843 L 5.944387708774649 4.087861746840241 L 6.188185011282828 4.143204996561731 M 6.680880464194461 3.3573387068852285 Q 6.68003754421564 3.3723150043552077 6.672570950741652 3.3804082102647466 Q 6.665104357267664 3.388501416174285 6.652842345965407 3.392819179347889 L 5.99832698406717 3.579333631976151 Q 5.992224075748669 3.5809933036472867 5.9872319765920095 3.5807123303210133 Q 5.979244617941354 3.5802627729989758 5.97359126694489 3.573935086019456 Q 5.9679379159484265 3.5676073990399364 5.9683874732704645 3.5596200403892806 L 5.9713095958637075 3.5077022091600196 Q 5.971983931846764 3.4957211711840364 5.978838926074577 3.4895967076045338 Q 5.98569392030239 3.4834722440250316 5.990798408789559 3.481756377688641 L 6.567860412879437 3.3189268857783176 L 6.012770522904141 3.0913742236378496 Q 6.00789081307799 3.0890964106489127 6.001738252165861 3.0827406263367654 Q 5.995585691253731 3.076384842024618 5.996260027236787 3.064403804048635 L 5.999182149830031 3.012485972819374 Q 5.999631707152068 3.004498614168718 6.005987491464215 2.9983460532565887 Q 6.012343275776363 2.992193492344459 6.020330634427018 2.9926430496664964 Q 6.025322733583678 2.99292402299277 6.0312008632411604 2.995258030646962 L 6.660597209770553 3.25503724262408 Q 6.672353469085518 3.259705257932464 6.678864753250177 3.2685851891555684 Q 6.685376037414835 3.2774651203786727 6.684533117436016 3.292441417848652 L 6.680880464194461 3.3573387068852285 M 6.683939760311053 2.755294468942981 Q 6.68511705488233 2.7662312864642 6.67929655065867 2.7728924973588014 Q 6.67347604643501 2.7795537082534025 6.663533485052083 2.7806239760454723 L 6.0142842267469945 2.8505124628676386 Q 6.003347409225776 2.8516897574389155 5.9962425836516315 2.846419894674005 Q 5.989137758077487 2.8411500319090948 5.9879604635062105 2.830213214387876 L 5.943758403693723 2.4195854292730186 Q 5.942581109122445 2.4086486117518 5.948401613346106 2.4019874008571986 Q 5.954222117569766 2.3953261899625975 5.965158935090985 2.3941488953913206 L 6.002940668346104 2.3900818777814545 Q 6.013877485867324 2.3889045832101776 6.020485183372322 2.3942279593646916 Q 6.027092880877319 2.3995513355192055 6.028270175448596 2.4104881530404243 L 6.064659280378974 2.7485352400599194 L 6.28240137466506 2.725096375413588 L 6.248366858877237 2.408922923436531 Q 6.247189564305959 2.397986105915312 6.25301006852962 2.391324895020711 Q 6.25883057275328 2.3846636841261093 6.269767390274499 2.3834863895548324 L 6.306554867391326 2.379526398724174 Q 6.316497428774253 2.3784561309321037 6.323602254348397 2.3837259936970145 Q 6.330707079922541 2.3889958564619245 6.331884374493818 2.3999326739831437 L 6.365918890281641 2.7161061259602004 L 6.591615033674069 2.6918110470802135 L 6.5543697145100355 2.3458099109543773 Q 6.553192419938759 2.334873093433158 6.558515796093272 2.3282653959281605 Q 6.563839172247786 2.321657698423163 6.574775989769005 2.320480403851886 L 6.613551979162417 2.3163063594628133 Q 6.623494540545344 2.3152360916707435 6.630599366119488 2.320505954435654 Q 6.637704191693632 2.325775817200564 6.638881486264909 2.336712634721783 L 6.683939760311053 2.755294468942981" fill="#dceac6" fill-rule="nonzero"></path></g><g clip-path="url(#SvgjsClipPath1001)"><g clip-path="url(#a3a688869-39ed-4d85-aa1c-c730e0cf61985287e5c4-94e1-4090-ae2e-4b03d575f67f)"><path d=" M 1.8211162118734536 4.566915809494375 C 1.8220449973952557 4.56745760104876 1.7971999846870497 4.578757824897353 1.798128770208852 4.5792996164517366 C 1.8114413626880153 4.572643320212156 1.824676556373695 4.565677428798639 1.837756952472408 4.5582471446242225 C 1.84464544509244 4.5536806158086955 1.8513017413320216 4.5491140869931685 1.8574936448107022 4.5445475581776416 L 1.8611313881044271 4.5445475581776416 C 2.675908487105313 4.050975452133313 3.0769116361433673 2.06020108494401 3.0769116361433673 2.06020108494401 C 2.380632089965731 4.0554645821553565 1.9369048069247812 4.462969229846024 1.8211162118734536 4.566915809494375 M 1.800450734013357 4.671249383110144 L 1.800605531600324 4.671326781903628 L 1.8071844290464223 4.673571346914649 C 2.1846583448654897 4.63804530070572 2.7110475393468256 4.595321166702823 2.7432454374359647 4.58046059835399 C 2.7676260573832696 4.5691603745053975 2.787594946102015 4.557240960308937 2.8040034903205187 4.541142011264368 C 2.8123625600167377 4.5326281439811815 2.819792844191154 4.524036877904512 2.827997116300406 4.507550934892525 C 2.8320218535615482 4.49903706760934 2.8365109835835915 4.488201236521648 2.8408453160186684 4.470012520053023 C 2.8439412677580083 4.457396516715212 2.8468050231168984 4.439362597833555 2.848275600193085 4.418774518766941 C 2.9700239023426427 3.7282998821005693 3.5234252757497226 3.43573244273291 3.790760708441759 2.9404575632319436 C 3.960540224908856 2.6467305441379407 4.049793687124266 2.3133983647304035 4.049504875057125 1.9741336265903497 C 4.049504875057125 0.8838168227881765 3.143706794919634 1.4386733844246263e-15 2.0263004133982325 1.4386733844246263e-15 L 2.0232044616588922 1.4386733844246263e-15 C 0.9058754789309746 1.4386733844246263e-15 0 0.8838168227881765 0 1.9741336265903497 C 0 2.325214553831541 0.0940395340824619 2.654778616484317 0.25874416661536637 2.9404575632319436 C 0.5226740523941277 3.4294631404607454 1.0628402321155284 3.718238038947713 1.1936441931026562 4.389749971210626 C 1.194495579830975 4.393929506058735 1.1951921689723266 4.398263838493812 1.1959661569071616 4.402443373341922 C 1.2160898432128735 4.530538376557127 1.2276996622353997 4.726047728896467 1.2276996622353997 4.726047728896467 L 1.2277770610288834 4.725970330102983 C 1.2281640549963009 4.742765868288905 1.2296346320724876 4.758942216126958 1.2316470007030587 4.7721000110191545 C 1.2365231246925197 4.802982129619075 1.2427924269646837 4.818616685902742 1.2479007473345953 4.829994308544818 C 1.2549276981531985 4.845399027467425 1.2651358843480038 4.85914183110436 1.2778540804127128 4.870319079949726 C 1.2976681715444909 4.887811207276999 1.3228227794266307 4.900891603375712 1.3533953028526164 4.913352809126556 C 1.4595864475119888 4.956076943129452 2.6137572559380566 5.0328565462650925 2.643710589016174 5.041447812341762 C 2.541698979204911 5.070936752658978 1.3819554576480306 5.155843229110386 1.3335038129273549 5.178134081633636 C 1.3092005917735334 5.189434305482228 1.2892317030547886 5.201353719678688 1.2727457600428014 5.217452668723258 C 1.2628982677811225 5.227188464592598 1.2548071588808551 5.238552675798799 1.2488295328563974 5.2510437450951 C 1.2431756083357275 5.263052072538024 1.2388416984623403 5.275638577260136 1.2359039343446516 5.288582159934602 C 1.2302872430051282 5.31394202063729 1.2275352525524963 5.339852270370561 1.2276996622353997 5.365826155831143 C 1.227622263441916 5.3857176457564035 1.2292476381050699 5.405299540507731 1.2316470007030587 5.420779299204433 C 1.2365231246925197 5.4516614178043525 1.2427924269646837 5.467218575294537 1.2479007473345953 5.478673596730097 C 1.258117388074418 5.499803467351095 1.2671730469119886 5.508936524982149 1.2778540804127128 5.518920969341521 C 1.2976681715444909 5.536490495462277 1.3228227794266307 5.549648290354473 1.3533953028526164 5.5620320973118345 C 1.4595864475119888 5.604756231314731 2.6137572559380566 5.68153583445037 2.643710589016174 5.690204499320523 C 2.541698979204911 5.719616040844256 1.3819554576480306 5.8045225172956645 1.3335038129273549 5.826813369818915 C 1.3092005917735334 5.838113593667507 1.2892317030547886 5.850033007863967 1.2727457600428014 5.86620935570202 C 1.2628619676244086 5.875914216593264 1.2547660489853874 5.8872851832254165 1.2488295328563974 5.899800432073863 C 1.2431735093526741 5.911781041725835 1.238839412158481 5.9243421377856516 1.2359039343446516 5.937261448119879 C 1.2302872430051282 5.962621308822569 1.2275352525524963 5.988531558555839 1.2276996622353997 6.014505444016422 C 1.2276996622353997 6.075805288455359 1.2436438136930026 6.1254179150782875 1.2633031072378134 6.1254179150782875 C 1.2751451226407902 6.1254179150782875 1.2856713585545472 6.107538793783597 1.2920954584136781 6.079984823303469 C 1.2947270173921175 6.077121067944579 1.2984421594793258 6.073560723444338 1.302853890707886 6.070232575324546 C 1.3183336494045874 6.058158363541119 1.3426368705584089 6.045697157790275 1.3721258108756251 6.03455173152865 C 1.4759949917304926 5.995000948058577 2.694948590302256 5.900187426041279 2.7432454374359647 5.877896573518029 C 2.7676260573832696 5.866518950875954 2.787594946102015 5.854599536679494 2.8040034903205187 5.838500587634924 C 2.8123625600167377 5.829986720351738 2.819792844191154 5.821395454275069 2.827997116300406 5.804909511263082 C 2.8320218535615482 5.796395643979896 2.8365109835835915 5.785559812892204 2.8408453160186684 5.767371096423581 C 2.845179648453745 5.749646772715858 2.849204385714887 5.72124141550741 2.8491269869214033 5.690204499320523 C 2.8491269869214033 5.670235610601779 2.8475016122582497 5.650653715850451 2.845179648453745 5.635173957153749 C 2.8425725022360733 5.615185957556454 2.8370711693426496 5.595683602085929 2.8288485030287243 5.577279659628085 C 2.8218973959062152 5.5618524899053385 2.8116771892493078 5.5481199124852045 2.7988951699506073 5.537032287016662 C 2.779081078818829 5.519462760895905 2.7540038697301727 5.506382364797193 2.723431346304187 5.493921159046348 C 2.617162802851331 5.451197025043451 1.4629919944252634 5.374417421907811 1.4331160601406294 5.365826155831143 C 1.5351276699518925 5.336337215513926 2.694948590302256 5.251430739062518 2.7432454374359647 5.229139886539268 C 2.7676260573832696 5.217839662690675 2.787594946102015 5.205920248494216 2.8040034903205187 5.189821299449647 C 2.8123625600167377 5.18130743216646 2.819792844191154 5.172793564883274 2.827997116300406 5.156230223077803 C 2.8320218535615482 5.147716355794618 2.8365109835835915 5.1368805247069265 2.8408453160186684 5.1186144094448185 C 2.8465373727797614 5.093291831500934 2.8493159681679883 5.067401554846149 2.8491269869214033 5.041447812341762 C 2.8491269869214033 5.0215563224165 2.8475016122582497 5.001974427665172 2.845179648453745 4.986494668968471 C 2.8425725022360733 4.966506669371176 2.83707116934265 4.947004313900651 2.8288485030287243 4.9286003714428075 C 2.8218973959062152 4.913173201720061 2.8116771892493078 4.899440624299927 2.7988951699506073 4.888352998831383 C 2.779081078818829 4.87086087150411 2.7540038697301727 4.85762567781843 2.723431346304187 4.84524187086107 C 2.617162802851331 4.80244033806469 1.4629919944252634 4.725815532516017 1.4331934589341127 4.717146867645864 C 1.4434100996739356 4.714128314700007 1.4645399702949333 4.71064536899325 1.4941063094056333 4.706620631732107 C 1.5494464467463411 4.693772432013844 1.64054482667643 4.665367074805397 1.7591971770866472 4.603448040018591 C 1.6979747314411926 4.37349622457909 1.542557954126309 3.6433934056491615 1.8730508023008874 3.134496338495098 C 2.2334969835535827 2.6463421479946145 2.564918617249963 2.8080282275816626 3.076911636143367 2.06020108494401 C 3.076911636143367 2.06020108494401 3.563130856806762 4.29230489021489 1.8004507340133569 4.671249383110144 M 1.6438729747962209 4.144318397074423 C 1.38458701662647 3.98603786440065 1.0989854686723264 3.7087953861427256 0.9322684675088505 3.2245111353164173 C 0.6652426299907488 2.33225784403854 1.0505338239516506 2.0971977082291273 0.6236020790966218 0.7833531888465833 C 1.1990621086465019 1.8186394504819825 1.5679447583889 2.5598876956735364 1.803624084546181 3.089295443100729 C 1.5903130097056335 3.434107068069756 1.5967371095647647 3.8471844288912367 1.6438729747962209 4.144318397074423 M 1.8951868572371706 2.9725780625276 C 1.4679455172082079 1.9656971581006473 0.7485237317790034 0.950379785183993 0.6268528284229292 0.7818052129769137 C 0.7105983229720846 0.8296376673497217 1.9173229121734539 1.5348954735714442 2.319022650352859 2.6512956707775595 C 2.170726562038458 2.7412330688053954 2.033266304811748 2.8166968924518154 1.8951868572371706 2.9725780625276" fill="#97feed" transform="matrix(1,0,0,1,0,0)" fill-rule="nonzero"></path></g></g></g><defs><clipPath id="SvgjsClipPath1001"><path d=" M 0 0 h 4.049505573751624 v 6.1254179150782875 h -4.049505573751624 Z"></path></clipPath><clipPath id="a3a688869-39ed-4d85-aa1c-c730e0cf61985287e5c4-94e1-4090-ae2e-4b03d575f67f"><path d=" M 0 6.1254179150782875 L 4.049504875057125 6.1254179150782875 L 4.049504875057125 -0.00007739879348214839 L 0 -0.00007739879348214839 Z"></path></clipPath></defs></svg>